<?xml version="1.0" encoding="UTF-8"?>
<svg width="25px" height="25px" viewBox="0 0 25 25" version="1.1" xmlns="http://www.w3.org/2000/svg" xmlns:xlink="http://www.w3.org/1999/xlink">
    <!-- Generator: Sketch 47.1 (45422) - http://www.bohemiancoding.com/sketch -->
    <title>Feature icon 5</title>
    <desc>Created with Sketch.</desc>
    <defs></defs>
    <g id="Pages" stroke="none" stroke-width="1" fill="none" fill-rule="evenodd">
        <g id="Home" transform="translate(-502.000000, -4348.000000)" fill="#20BFD7">
            <g id="Group-Copy-3" transform="translate(147.000000, 4188.000000)">
                <g id="Feature-icon-5" transform="translate(355.000000, 160.000000)">
                    <path d="M19.8055928,4.91677835 C19.3893557,4.91677835 19.0509536,5.25543814 19.0509536,5.67193299 C19.0509536,6.0881701 19.3893557,6.4268299 19.8055928,6.4268299 C20.2218299,6.4268299 20.5607474,6.0881701 20.5607474,5.67193299 C20.5607474,5.25543814 20.2218299,4.91677835 19.8055928,4.91677835 Z M13.4089433,14.3587887 L13.4089433,7.5567268 C13.4089433,6.08920103 14.7568814,4.82270619 16.0934794,4.82270619 L17.9035309,4.82270619 C18.1991495,4.04951031 18.9375515,3.55492268 19.8055928,3.55492268 C20.9323969,3.55492268 21.8494072,4.51548969 21.8494072,5.64255155 C21.8494072,6.76935567 20.9323969,7.65698454 19.8055928,7.65698454 C18.8731186,7.65698454 18.0932216,7.14229381 17.8491495,6.11136598 L16.0934794,6.11136598 C15.3821392,6.11136598 14.6976031,6.91265464 14.6976031,7.5567268 L14.6976031,14.3587887 L13.4089433,14.3587887 Z" id="Fill-1"></path>
                    <path d="M19.8522423,18.9003351 L19.8522423,11.7812629 L18.5635825,11.7812629 L18.5635825,18.2245619 L5.67698454,18.2245619 L5.67698454,11.7812629 L4.38832474,11.7812629 L4.38832474,18.9003351 C4.38832474,19.2562629 4.9775,19.5132216 5.33342784,19.5132216 L19.5086856,19.5132216 C19.8646134,19.5132216 19.8522423,19.2562629 19.8522423,18.9003351" id="Fill-3"></path>
                    <path d="M23.7170361,19.9920876 C23.5304381,19.8572938 22.4296649,19.3879639 22.171933,19.1449227 L22.171933,9.45007732 C22.171933,9.09414948 22.0123969,8.68847938 21.6564691,8.68847938 L17.0172938,8.68847938 L17.0172938,9.97713918 L20.8832732,9.97713918 L20.8832732,19.8998196 L21.5193557,20.1954381 C22.1698711,20.5652835 22.9116237,20.9549742 23.0270876,21.036933 C23.4420361,21.3364175 23.5894588,21.5155412 23.5894588,22.0877062 C23.5894588,22.5480155 23.2170361,22.8637371 22.7595619,22.8637371 L2.11832474,22.8637371 C1.66085052,22.8637371 1.28868557,22.5547165 1.28868557,22.0944072 C1.28868557,21.5523969 1.51780928,21.2632216 2.05569588,20.9735309 C2.48224227,20.7438918 3.35389175,20.1196649 3.45208763,20.0475 L3.41832474,20.0286856 L3.61523196,20.0286856 L3.61523196,9.97713918 L7.48121134,9.97713918 L7.48121134,8.68847938 L3.18559278,8.68847938 C2.82966495,8.68847938 2.32657216,9.09414948 2.32657216,9.45007732 L2.32657216,19.0892526 C2.32657216,19.3132216 1.58636598,19.661933 1.33765464,19.7962113 C0.378891753,20.311933 2.57731959e-05,21.0634794 2.57731959e-05,22.0877062 C2.57731959e-05,23.2583247 0.950283505,24.1523969 2.11832474,24.1523969 L22.7595619,24.1523969 C23.9276031,24.1523969 24.8781186,23.2583247 24.8781186,22.0877062 C24.8781186,20.9163144 24.2866237,20.4036856 23.7170361,19.9920876" id="Fill-5"></path>
                    <path d="M12.2389175,1.28865979 C12.6551546,1.28865979 12.9940722,1.62731959 12.9940722,2.04381443 C12.9940722,2.46005155 12.6551546,2.79871134 12.2389175,2.79871134 C11.8226804,2.79871134 11.4837629,2.46005155 11.4837629,2.04381443 C11.4837629,1.62731959 11.8226804,1.28865979 12.2389175,1.28865979 M11.3471649,3.96314433 L11.3471649,16.4206186 L12.6358247,16.4206186 L12.6358247,3.98350515 C13.4948454,3.72190722 14.1752577,2.95618557 14.1752577,2.04381443 C14.1752577,0.916752577 13.3121134,0 12.1853093,0 C11.0582474,0 10.0610825,0.916752577 10.0610825,2.04381443 C10.0610825,2.93221649 10.9175258,3.68221649 11.3471649,3.96314433" id="Fill-8"></path>
                    <path d="M4.87190722,4.88703608 C5.28814433,4.88703608 5.62706186,5.22569588 5.62706186,5.64219072 C5.62706186,6.05842784 5.28814433,6.39708763 4.87190722,6.39708763 C4.4556701,6.39708763 4.11675258,6.05842784 4.11675258,5.64219072 C4.11675258,5.22569588 4.4556701,4.88703608 4.87190722,4.88703608 M4.87190722,7.62724227 C5.79381443,7.62724227 6.56572165,7.14219072 6.81958763,6.11126289 L8.58427835,6.11126289 C9.30618557,6.11126289 9.28530928,7.04193299 9.28530928,7.5267268 L9.28530928,14.3586856 L10.5739691,14.3586856 L10.5739691,7.5267268 C10.5739691,5.95533505 9.87139175,4.82260309 8.58427835,4.82260309 L6.78350515,4.82260309 C6.49587629,4.04940722 5.75103093,3.5396134 4.87190722,3.5396134 C3.74484536,3.5396134 2.82809278,4.45636598 2.82809278,5.58342784 C2.82809278,6.71048969 3.74484536,7.62724227 4.87190722,7.62724227" id="Fill-10"></path>
                    <polygon id="Fill-12" points="10.5739691 22.0906186 14.4399485 22.0906186 14.4399485 20.8019588 10.5739691 20.8019588"></polygon>
                </g>
            </g>
        </g>
    </g>
</svg>