<?xml version="1.0" encoding="UTF-8"?>
<svg width="21px" height="21px" viewBox="0 0 21 21" version="1.1" xmlns="http://www.w3.org/2000/svg" xmlns:xlink="http://www.w3.org/1999/xlink">
    <!-- Generator: Sketch 47.1 (45422) - http://www.bohemiancoding.com/sketch -->
    <title>Feature icon 6</title>
    <desc>Created with Sketch.</desc>
    <defs></defs>
    <g id="Pages" stroke="none" stroke-width="1" fill="none" fill-rule="evenodd">
        <g id="Home" transform="translate(-504.000000, -4446.000000)" fill="#20BFD7">
            <g id="Group-Copy-3" transform="translate(147.000000, 4188.000000)">
                <path d="M366.820013,264.461457 L367.673159,262.732498 C368.566631,264.543425 368.578491,264.757436 369.022591,264.821745 L370.930244,265.099011 C369.48145,266.511434 369.284043,266.586285 369.360212,267.028013 L369.685974,268.927759 C367.892706,267.985002 367.763561,267.822385 367.366638,268.030862 L365.660345,268.927759 C366.001657,266.937611 366.117623,266.757863 365.796606,266.444753 L364.416075,265.099011 C366.415974,264.808303 366.621552,264.863388 366.820013,264.461457 L366.820013,264.461457 Z M364.628768,267.146615 C364.104809,270.201285 363.968021,270.352833 364.397889,270.665416 C364.838036,270.985642 364.989847,270.769259 367.673159,269.358418 L370.254474,270.715492 C370.475865,270.83225 370.745225,270.81301 370.94843,270.665416 C371.388577,270.345189 371.229913,270.134604 370.717551,267.146615 C372.936733,264.983571 373.137039,264.941138 372.972841,264.435365 C372.804689,263.917468 372.548508,264.002862 369.55472,263.567459 C368.18394,260.789528 368.205025,260.585005 367.673159,260.585005 C367.128906,260.585005 367.134441,260.846984 365.791599,263.567459 L362.905608,263.987048 C362.366099,264.065325 362.149715,264.730289 362.540312,265.110871 L364.628768,267.146615 Z M374.089284,270.571588 L375.407089,270.571588 L375.407089,260.804814 L374.089284,260.804814 L374.089284,270.571588 Z M359.68384,270.571588 L361.001644,270.571588 L361.001644,260.804814 L359.68384,260.804814 L359.68384,270.571588 Z M358.317804,272.058335 L376.682196,272.058335 L376.682196,259.317804 L358.317804,259.317804 L358.317804,272.058335 Z M366.206971,275.023394 L368.447238,275.023394 L368.447238,273.376139 L366.206971,273.376139 L366.206971,275.023394 Z M372.024285,277.240204 L372.024285,277.527222 L362.883996,277.527222 L362.883996,277.240204 C362.883996,276.744446 363.287507,276.341198 363.783265,276.341198 L371.125279,276.341198 C371.621037,276.341198 372.024285,276.744446 372.024285,277.240204 L372.024285,277.240204 Z M377.341098,258 L357.658902,258 C357.294925,258 357,258.295188 357,258.658902 L357,272.717237 C357,273.081214 357.294925,273.376139 357.658902,273.376139 L364.889166,273.376139 L364.889166,275.023394 L363.783265,275.023394 C362.56087,275.023394 361.566191,276.018073 361.566191,277.240204 L361.566191,278.186124 C361.566191,278.550102 361.86138,278.845026 362.225094,278.845026 L372.683187,278.845026 C373.047165,278.845026 373.342089,278.550102 373.342089,278.186124 L373.342089,277.240204 C373.342089,276.018073 372.347674,275.023394 371.125279,275.023394 L369.765042,275.023394 L369.765042,273.376139 L377.341098,273.376139 C377.705075,273.376139 378,273.081214 378,272.717237 L378,258.658902 C378,258.295188 377.705075,258 377.341098,258 L377.341098,258 Z" id="Feature-icon-6"></path>
            </g>
        </g>
    </g>
</svg>