<?xml version="1.0" encoding="UTF-8"?>
<svg width="23px" height="20px" viewBox="0 0 23 20" version="1.1" xmlns="http://www.w3.org/2000/svg" xmlns:xlink="http://www.w3.org/1999/xlink">
    <!-- Generator: Sketch 47.1 (45422) - http://www.bohemiancoding.com/sketch -->
    <title>Feature icon 4</title>
    <desc>Created with Sketch.</desc>
    <defs></defs>
    <g id="Pages" stroke="none" stroke-width="1" fill="none" fill-rule="evenodd">
        <g id="Home" transform="translate(-152.000000, -4545.000000)" fill="#20BFD7">
            <g id="Group-Copy-3" transform="translate(147.000000, 4188.000000)">
                <path d="M13.4896571,362.288177 L14.7238341,362.288177 L14.7238341,360.807165 L13.4896571,360.807165 L13.4896571,362.288177 Z M13.4896571,368.079676 L14.7238341,368.079676 L14.7238341,366.731214 L13.4896571,366.731214 L13.4896571,368.079676 Z M13.4896571,365.250202 L14.7238341,365.250202 L14.7238341,363.76919 L13.4896571,363.76919 L13.4896571,365.250202 Z M22.6531748,366.262474 C22.4628647,366.142265 22.2345419,366.100303 22.0084407,366.151151 C21.5466116,366.255069 21.2592952,366.712702 21.3627193,367.173297 C21.4668838,367.635619 21.9247635,367.922442 22.3838774,367.819018 C22.5008773,367.819018 22.7719026,367.674373 22.9187697,367.441854 C23.1700481,367.043955 23.0540355,366.516221 22.6531748,366.262474 L22.6531748,366.262474 Z M23.9618961,368.101151 C23.663719,368.5731 23.1996684,368.900404 22.6551495,369.022834 C20.8520168,369.432088 19.4388841,367.438398 20.4306688,365.869018 C21.0467699,364.893772 22.3362381,364.601519 23.3124722,365.219348 C24.2899404,365.837423 24.5775036,367.126892 23.9618961,368.101151 L23.9618961,368.101151 Z M26.685478,366.239025 L26.5711932,365.732518 C25.6993706,365.62786 25.4285921,365.662417 25.2365542,365.312898 C24.8692631,364.645702 24.5486239,364.587202 24.6503201,364.135987 L24.8433454,363.283171 L24.4049657,363.005974 C23.7133329,363.549012 23.5444974,363.765734 23.1636304,363.653177 C22.4374406,363.442133 22.1651812,363.626025 21.9178521,363.235285 L21.4505927,362.496259 L20.9448269,362.610297 C20.8399219,363.482367 20.8744788,363.753886 20.5237257,363.945677 C19.8668967,364.305316 19.800498,364.63262 19.3485423,364.530677 L18.4954792,364.338392 L18.2180362,364.777019 C18.7610741,365.469639 18.975574,365.635759 18.8644981,366.01786 C18.5102893,367.24093 19.1414474,366.824518 17.7070869,367.730898 L17.8213717,368.237157 L18.6887513,368.341816 C19.151074,368.397847 19.095536,368.720708 19.6008081,369.287442 C19.8659093,369.585372 19.743479,369.827518 19.5494664,370.686258 L19.9880929,370.963701 C21.3217446,369.917366 20.7922826,370.379195 21.9896812,370.448556 C22.3870862,370.472252 22.4710103,370.728714 22.9419722,371.473663 L23.4474911,371.359625 C23.5491873,370.5231 23.513643,370.219986 23.8683455,370.024986 C24.5301112,369.661644 24.5923138,369.337303 25.0447631,369.439246 L25.8975794,369.631777 L26.1747756,369.193151 C25.6319845,368.501765 25.4155098,368.333917 25.5280668,367.950088 C25.7415794,367.222911 25.5552187,366.953366 25.946206,366.706037 L26.685478,366.239025 Z M27.712807,367.049632 L26.8614717,367.587733 C26.84444,367.71979 26.8214843,367.851354 26.7930983,367.981683 C27.3729146,368.720214 27.7426741,369.022588 27.4506678,369.483923 C26.7444717,370.601841 26.5939021,371.055771 26.0506174,370.931613 L25.0687061,370.709708 C24.9630605,370.791163 24.8539593,370.868423 24.741896,370.940499 C24.6281049,371.876005 24.6757441,372.347954 24.143567,372.467916 C22.1513584,372.91691 22.4937191,373.075378 21.5937572,371.650397 C21.4612066,371.633119 21.3296433,371.61041 21.1993142,371.582024 L20.4072194,372.203556 C20.2018523,372.364739 19.9172511,372.379055 19.6965803,372.239593 C17.9521944,371.136486 18.1054792,371.4786 18.4712893,369.857879 C18.3900804,369.75248 18.3130678,369.643379 18.240745,369.531069 L17.2413084,369.410366 C16.6970364,369.344708 16.7120933,368.927803 16.4074984,367.577613 C16.3499858,367.322879 16.459087,367.059506 16.6797579,366.92029 L17.53134,366.382189 C17.5486185,366.250132 17.5713274,366.118816 17.5997135,365.988487 C16.5590554,364.661746 16.591144,365.040639 17.6848717,363.310569 C17.8240868,363.090145 18.0879539,362.980304 18.3421944,363.038557 L19.3243525,363.259968 C19.4302448,363.178266 19.5393461,363.1015 19.6514094,363.029424 C19.7634727,362.096386 19.7155866,361.621968 20.2482574,361.502006 C21.6021496,361.197165 21.9684534,361.005373 22.261447,361.46893 L22.7993013,362.320019 C22.9313583,362.337051 23.0629216,362.359759 23.1932507,362.388145 C23.9288202,361.810797 24.2344024,361.438076 24.6964783,361.730082 L25.871168,362.47281 C26.0918389,362.612272 26.2009401,362.875892 26.1431806,363.130626 L25.9212756,364.112538 C26.0024845,364.217936 26.0792503,364.327038 26.151573,364.439101 L27.1507628,364.559063 C27.4101868,364.590411 27.6219716,364.781462 27.6792374,365.036196 L27.9848196,366.392309 C28.0423323,366.646797 27.933231,366.91017 27.712807,367.049632 L27.712807,367.049632 Z M19.0708525,375.01896 C19.0708525,374.554663 18.6931943,374.177005 18.2291437,374.177005 L11.3525561,374.177005 C10.8882587,374.177005 10.5106005,374.554663 10.5106005,375.01896 L10.5106005,375.287764 L19.0708525,375.287764 L19.0708525,375.01896 Z M13.6229482,372.942828 L15.7210492,372.942828 L15.7210492,371.400106 L13.6229482,371.400106 L13.6229482,372.942828 Z M20.3050295,375.01896 L20.3050295,375.904852 C20.3050295,376.245732 20.0288207,376.521941 19.687941,376.521941 L9.89351198,376.521941 C9.55263228,376.521941 9.27642346,376.245732 9.27642346,375.904852 L9.27642346,375.01896 C9.27642346,373.874138 10.2079803,372.942828 11.3525561,372.942828 L12.3887711,372.942828 L12.3887711,371.400106 L5.61708852,371.400106 C5.27620882,371.400106 5,371.123897 5,370.783018 L5,357.617064 C5,357.276184 5.27620882,356.999975 5.61708852,356.999975 L24.05051,356.999975 C24.3913897,356.999975 24.6675986,357.276184 24.6675986,357.617064 L24.6675986,360.617348 L23.4334215,360.617348 L23.4334215,358.234152 L6.23417705,358.234152 L6.23417705,370.165929 L17.5027071,370.165929 L17.5027071,371.400106 L16.9552262,371.400106 L16.9552262,372.942828 L18.2291437,372.942828 C19.3737195,372.942828 20.3050295,373.874138 20.3050295,375.01896 L20.3050295,375.01896 Z M7.51377181,368.773531 L8.74794885,368.773531 L8.74794885,359.626798 L7.51377181,359.626798 L7.51377181,368.773531 Z" id="Feature-icon-4"></path>
            </g>
        </g>
    </g>
</svg>