<?xml version="1.0" encoding="UTF-8"?>
<svg width="19px" height="24px" viewBox="0 0 19 24" version="1.1" xmlns="http://www.w3.org/2000/svg" xmlns:xlink="http://www.w3.org/1999/xlink">
    <!-- Generator: Sketch 47.1 (45422) - http://www.bohemiancoding.com/sketch -->
    <title>Feature icon 2</title>
    <desc>Created with Sketch.</desc>
    <defs></defs>
    <g id="Pages" stroke="none" stroke-width="1" fill="none" fill-rule="evenodd">
        <g id="Home" transform="translate(-153.000000, -4409.000000)" fill="#20BFD7">
            <g id="Group-Copy-3" transform="translate(147.000000, 4188.000000)">
                <path d="M23.5011515,225.181201 L15.4490632,222.43654 L7.396975,225.181201 L7.396975,231.939334 C7.396975,235.548775 9.47551912,239.226951 12.4512544,240.883863 L15.4490632,242.553349 L18.4468721,240.883863 C21.4228868,239.226951 23.5011515,235.548775 23.5011515,231.939334 L23.5011515,225.181201 Z M24.8982103,224.681334 L24.8982103,231.939334 C24.8982103,236.09726 22.5785338,240.18226 19.1264015,242.104613 C15.6100044,244.062731 15.728475,244.051275 15.4490632,244.051275 C15.1696515,244.051275 15.2884015,244.06301 11.771725,242.104613 C8.31959265,240.18226 5.99991618,236.09726 5.99991618,231.939334 L5.99991618,224.681334 C5.99991618,224.382363 6.19019559,224.116363 6.47323971,224.020246 L15.2235779,221.037246 C15.3697103,220.98751 15.5281368,220.98751 15.6742691,221.037246 L24.4251662,224.020246 C24.7079309,224.116363 24.8982103,224.382363 24.8982103,224.681334 L24.8982103,224.681334 Z M15.8304603,234.267672 L19.3734015,230.300584 C19.989225,229.611554 18.9450632,228.681393 18.331475,229.370143 L15.3096368,232.753819 L13.3015044,230.505672 C12.6887544,229.816363 11.6437544,230.746804 12.2598574,231.436113 L14.7885338,234.267672 C15.0657103,234.578099 15.5530044,234.578657 15.8304603,234.267672 L15.8304603,234.267672 Z M10.0516662,226.171437 C9.68675441,226.295775 9.49144559,226.692819 9.61606324,227.05801 C9.74040147,227.423201 10.1366074,227.617672 10.5026368,227.493613 L15.4557691,225.805128 C20.7123426,227.596996 20.4466221,227.531334 20.6346662,227.531334 C21.4203721,227.531334 21.6045044,226.425143 20.8601515,226.171437 L15.6812544,224.406113 C15.5348426,224.356378 15.3766956,224.356378 15.2302838,224.406113 L10.0516662,226.171437 Z M21.3331956,233.116216 C21.3331956,235.711672 19.8604162,238.143951 17.4890485,239.464172 L15.7955338,240.407187 C15.5862544,240.523422 15.3297544,240.525937 15.115725,240.407187 L13.4222103,239.463893 C11.0514015,238.143951 9.57862206,235.711672 9.57862206,233.116216 C9.57862206,232.730628 9.89128382,232.417687 10.2771515,232.417687 C10.6630191,232.417687 10.9756809,232.730628 10.9756809,233.116216 C10.9756809,236.902246 14.2336221,238.316628 15.4557691,238.997275 L16.8097985,238.243422 C18.7380191,237.169643 19.9361368,235.205099 19.9361368,233.116216 C19.9361368,232.730628 20.2487985,232.417687 20.6346662,232.417687 C21.0205338,232.417687 21.3331956,232.730628 21.3331956,233.116216 L21.3331956,233.116216 Z" id="Feature-icon-2"></path>
            </g>
        </g>
    </g>
</svg>