<?xml version="1.0" encoding="UTF-8"?>
<svg width="23px" height="24px" viewBox="0 0 23 24" version="1.1" xmlns="http://www.w3.org/2000/svg" xmlns:xlink="http://www.w3.org/1999/xlink">
    <!-- Generator: Sketch 47.1 (45422) - http://www.bohemiancoding.com/sketch -->
    <title>Feature icon 7</title>
    <desc>Created with Sketch.</desc>
    <defs></defs>
    <g id="Pages" stroke="none" stroke-width="1" fill="none" fill-rule="evenodd">
        <g id="Home" transform="translate(-503.000000, -4520.000000)" fill="#20BFD7">
            <g id="Group-Copy-3" transform="translate(147.000000, 4188.000000)">
                <path d="M367.946577,353.379051 L368.649285,354.488277 L367.510386,355.210138 L366.366091,353.404947 L367.39574,351.656135 L368.558108,352.340499 L367.946577,353.379051 Z M357.811395,344.365235 L356.673844,345.021275 L356,343.852703 L357.851319,342.785018 L359.555352,343.886692 L358.823241,345.019657 L357.811395,344.365235 Z M377.188335,342.754266 L378.325886,342.098495 L379,343.267068 L377.148142,344.334483 L375.444108,343.232809 L376.176489,342.099844 L377.188335,342.754266 Z M366.680354,333.87209 L365.839802,332.862942 L366.876195,332 L368.243846,333.64253 L367.448612,335.509494 L366.208015,334.981047 L366.680354,333.87209 Z M358.651678,341.606195 L357.33501,341.314322 C358.172865,337.531567 361.016607,334.548362 364.757011,333.529233 L365.111467,334.830524 C361.856081,335.717474 359.380822,338.313852 358.651678,341.606195 L358.651678,341.606195 Z M368.910676,334.621735 L369.118926,333.289152 C373.02307,333.899065 376.295181,336.736873 377.454851,340.518548 L376.165699,340.914277 C375.156011,337.622474 372.308493,335.15261 368.910676,334.621735 L368.910676,334.621735 Z M376.377995,345.402437 L377.699248,345.67273 C376.911568,349.522384 373.945088,352.652874 370.142371,353.647725 L369.800863,352.342657 C373.11047,351.476748 375.692282,348.752507 376.377995,345.402437 L376.377995,345.402437 Z M364.832811,352.238802 L364.436543,353.527955 C361.205165,352.534452 358.64952,350.022237 357.600448,346.807853 L358.882857,346.389466 C359.795972,349.18735 362.020091,351.373972 364.832811,352.238802 L364.832811,352.238802 Z M372.17955,347.482237 L362.912975,347.482237 L362.912975,340.025709 L366.066395,340.025709 C366.71758,341.821728 366.747522,342.287053 367.359324,342.287053 L372.17955,342.287053 L372.17955,347.482237 Z M367.832202,340.938285 C367.181016,339.142266 367.151074,338.676941 366.539273,338.676941 L362.238591,338.676941 C361.866061,338.676941 361.564207,338.978795 361.564207,339.351325 L361.564207,348.156621 C361.564207,348.529151 361.866061,348.831005 362.238591,348.831005 L372.853934,348.831005 C373.226464,348.831005 373.528318,348.529151 373.528318,348.156621 L373.528318,341.612669 C373.528318,341.240139 373.226464,340.938285 372.853934,340.938285 L367.832202,340.938285 Z" id="Feature-icon-7"></path>
            </g>
        </g>
    </g>
</svg>