<?xml version="1.0" encoding="UTF-8"?>
<svg width="21px" height="17px" viewBox="0 0 21 17" version="1.1" xmlns="http://www.w3.org/2000/svg" xmlns:xlink="http://www.w3.org/1999/xlink">
    <!-- Generator: Sketch 47.1 (45422) - http://www.bohemiancoding.com/sketch -->
    <title>Feature icon 10</title>
    <desc>Created with Sketch.</desc>
    <defs></defs>
    <g id="Pages" stroke="none" stroke-width="1" fill="none" fill-rule="evenodd">
        <g id="Home" transform="translate(-901.000000, -4523.000000)" fill="#20BFD7">
            <g id="Group-Copy-3" transform="translate(147.000000, 4188.000000)">
                <path d="M762.129922,344.028788 L764.387119,344.028788 L764.387119,342.900189 L762.129922,342.900189 L762.129922,344.028788 Z M761.678482,340.642992 L766.870035,340.642992 L766.870035,339.514394 L761.678482,339.514394 L761.678482,340.642992 Z M773.641626,348.816754 C773.641626,349.759811 773.13782,350.574659 772.194763,350.574659 L772.023893,350.574659 L762.799632,350.574659 C763.160558,350.12322 763.25852,349.454864 763.25852,348.816754 L763.25852,347.414583 L773.641626,347.414583 L773.641626,348.816754 Z M759.421285,348.816754 L759.421285,337.941579 C759.421285,337.303244 759.398488,336.805758 759.037788,336.128598 L767.885774,336.128598 L768.432693,336.128598 C769.37575,336.128598 770.030111,336.998522 770.030111,337.941579 L770.030111,346.285985 L762.807081,346.285985 C762.495588,346.285985 762.129922,346.641268 762.129922,346.952986 L762.129922,348.816754 C762.129922,349.616479 761.53989,350.296347 760.769058,350.474665 C760.019217,350.293638 759.421285,349.621445 759.421285,348.816754 L759.421285,348.816754 Z M758.292687,339.288674 L755.358331,339.288674 L755.358331,337.941579 C755.358331,337.049535 756.103431,336.323395 756.975612,336.246424 C756.987801,336.249359 756.932048,336.257033 756.944915,336.25929 C757.764051,336.402396 758.292687,337.109802 758.292687,337.941579 L758.292687,339.288674 Z M774.46934,346.285985 L771.158709,346.285985 L771.158709,337.941579 C771.158709,336.376213 769.998284,335 768.432693,335 L767.885774,335 L757.557518,335 L757.181243,335 C755.615877,335 754.229732,336.376213 754.229732,337.941579 L754.229732,339.805121 C754.229732,340.11684 754.595398,340.417273 754.906891,340.417273 L758.292687,340.417273 L758.292687,348.816754 C758.292687,350.213507 759.401648,351.375287 760.732265,351.609809 C760.733394,351.609809 760.781021,351.610487 760.782149,351.610712 C760.792532,351.612518 760.825488,351.61297 760.835871,351.614775 C760.904715,351.626061 760.985297,351.660371 761.055722,351.666465 C761.141269,351.674817 761.236749,351.703257 761.319588,351.703257 L772.023893,351.703257 L772.194763,351.703257 C773.760129,351.703257 774.770225,350.381894 774.770225,348.816754 L774.770225,346.952986 C774.770225,346.641268 774.780833,346.285985 774.46934,346.285985 L774.46934,346.285985 Z" id="Feature-icon-10"></path>
            </g>
        </g>
    </g>
</svg>