<?xml version="1.0" encoding="UTF-8"?>
<svg width="27px" height="16px" viewBox="0 0 27 16" version="1.1" xmlns="http://www.w3.org/2000/svg" xmlns:xlink="http://www.w3.org/1999/xlink">
    <!-- Generator: Sketch 47.1 (45422) - http://www.bohemiancoding.com/sketch -->
    <title>Feature icon 1</title>
    <desc>Created with Sketch.</desc>
    <defs></defs>
    <g id="Pages" stroke="none" stroke-width="1" fill="none" fill-rule="evenodd">
        <g id="Home" transform="translate(-151.000000, -4355.000000)" fill="#20BFD7">
            <g id="Group-Copy-3" transform="translate(147.000000, 4188.000000)">
                <path d="M14.5650922,177.434791 C14.2685823,177.434791 14.0280363,177.675337 14.0280363,177.971602 C14.0280363,178.267866 14.2685823,178.508658 14.5650922,178.508658 C14.8613566,178.508658 15.1019027,178.267866 15.1019027,177.971602 C15.1019027,177.675337 14.8613566,177.434791 14.5650922,177.434791 L14.5650922,177.434791 Z M22.0303665,170.724537 L21.4245831,171.583139 C20.9457,172.261823 20.4587169,172.591469 19.9363883,172.591469 C19.6879876,172.591469 19.4523506,172.514396 19.2365955,172.361969 L18.2734293,171.682549 C17.9457466,171.45133 17.2898904,170.762337 18.2771111,169.362506 L18.8411672,168.562813 C18.1048016,168.668359 17.436918,169.088087 16.9698168,169.749835 C16.4418427,170.498718 16.3070877,171.462866 16.6099795,172.328587 C16.6715887,172.504824 16.6494977,172.699961 16.5500884,172.858034 L13.5614259,177.605874 C13.2170523,178.095066 13.327998,178.736931 13.7906811,179.063632 C14.2383914,179.379042 14.9075022,179.260978 15.2214394,178.816213 L18.6597758,174.447602 C18.7807852,174.293947 18.9705221,174.21221 19.1634499,174.213928 L19.2626138,174.215646 C20.1823344,174.215646 21.0507549,173.763518 21.5851108,173.006043 C22.0657121,172.324414 22.2151943,171.496248 22.0303665,170.724537 L22.0303665,170.724537 Z M22.6638864,169.149942 C23.5867979,170.548055 23.5568524,172.339387 22.5877953,173.713691 C21.8585479,174.747302 20.6923903,175.383522 19.4415506,175.438995 L16.2049784,179.549633 C15.8024319,180.121544 15.1131937,180.478436 14.3807554,180.478436 C13.914145,180.478436 13.4654529,180.336072 13.0830338,180.066562 C12.0673402,179.349096 11.8243395,177.939938 12.5405778,176.924981 L15.3615943,172.442233 C15.0515844,171.28172 15.2695486,170.031126 15.9671323,169.042433 C16.9266167,167.682611 18.53263,167.049336 20.1182706,167.413347 C20.3178256,167.459247 20.4810534,167.60112 20.554199,167.792084 C20.6273446,167.983294 20.6003446,168.198067 20.4825261,168.365222 L19.2797956,170.070154 C18.9641402,170.517618 18.9813221,170.695083 18.981813,170.697046 L19.9442428,171.359284 C19.9290246,171.364439 20.1079615,171.320502 20.4218987,170.875492 L21.6504019,169.134233 C21.7672386,168.968796 21.9692482,168.867914 22.1611942,168.874296 C22.3639402,168.877487 22.5519588,168.980578 22.6638864,169.149942 L22.6638864,169.149942 Z M30.8969446,174.731839 L25.7423855,167 L24.7212919,167.680647 L29.6166503,175.023685 L24.3386272,181.113674 L25.2659569,181.917294 L30.8500626,175.474095 C31.0309631,175.265458 31.0501086,174.961585 30.8969446,174.731839 L30.8969446,174.731839 Z M5.38359517,175.453231 L10.6613728,181.542975 L9.73404306,182.346841 L4.14993736,175.903642 C3.96903688,175.695005 3.94989137,175.391131 4.10305541,175.161385 L9.25761453,167.429547 L10.2787081,168.110439 L5.38359517,175.453231 Z" id="Feature-icon-1"></path>
            </g>
        </g>
    </g>
</svg>