<?xml version="1.0" encoding="UTF-8"?>
<svg width="25px" height="20px" viewBox="0 0 25 20" version="1.1" xmlns="http://www.w3.org/2000/svg" xmlns:xlink="http://www.w3.org/1999/xlink">
    <!-- Generator: Sketch 47.1 (45422) - http://www.bohemiancoding.com/sketch -->
    <title>Feature icon 8</title>
    <desc>Created with Sketch.</desc>
    <defs></defs>
    <g id="Pages" stroke="none" stroke-width="1" fill="none" fill-rule="evenodd">
        <g id="Home" transform="translate(-899.000000, -4352.000000)" fill="#20BFD7">
            <g id="Group-Copy-3" transform="translate(147.000000, 4188.000000)">
                <path d="M762.147949,172.354865 L762.147949,175.656975 L763.390465,175.656975 C763.390465,171.74479 763.491606,171.715963 763.089776,171.48237 C760.954388,170.241843 760.818457,167.370637 762.715282,165.927082 C762.715282,168.098751 762.641228,168.223749 762.955833,168.467779 L764.515439,169.678237 C764.735364,169.848711 765.042017,169.85219 765.265421,169.686935 C767.002458,168.403416 767.155287,168.386518 767.155287,167.976985 L767.155287,165.98896 C768.980295,167.467056 768.800627,170.274148 766.692078,171.48908 C766.277326,171.727891 766.380952,171.780326 766.380952,175.656975 L767.623467,175.656975 L767.623467,172.370024 C770.667134,170.286325 770.192741,165.761579 766.774084,164.328959 C766.582239,164.248444 766.363308,164.269566 766.190101,164.384623 C765.821074,164.630393 765.912772,164.740728 765.912772,167.663622 L764.905588,168.407889 L763.957797,167.672569 L763.957797,164.871193 C763.957797,164.431093 763.511983,164.131896 763.107917,164.293423 C759.61272,165.676591 759.103537,170.245322 762.147949,172.354865 L762.147949,172.354865 Z M762.810955,180.440412 L766.981832,180.440412 L766.981832,179.197896 L762.810955,179.197896 L762.810955,180.440412 Z M757.801878,176.775239 L757.801878,169.676498 L759.55631,169.676498 L759.55631,168.433982 L756.559362,168.433982 L756.559362,178.017755 L772.399449,178.017755 L772.399449,168.433982 L770.398502,168.433982 L770.398502,169.676498 L771.156934,169.676498 L771.156934,176.775239 L757.801878,176.775239 Z M774.854909,183.022856 L754.138941,183.022856 C751.890982,183.022856 751.029918,179.852453 753.46674,178.540854 C753.676228,178.428282 754.11086,178.174312 754.473923,177.96035 L754.473923,166.969553 C754.473923,166.62637 754.751998,166.348295 755.095181,166.348295 L759.618187,166.348295 L759.618187,167.590811 L755.716439,167.590811 L755.716439,178.856204 L755.400095,178.856204 C753.864842,179.76672 753.248803,179.89445 753.248803,180.885481 C753.248803,181.37876 753.648147,181.780341 754.138941,181.780341 L774.854909,181.780341 C775.345454,181.780341 775.744799,181.37876 775.744799,180.885481 C775.744799,179.973226 775.435164,179.895941 773.682223,178.856204 L773.242372,178.856204 L773.242372,167.590811 L770.179074,167.590811 L770.179074,166.348295 L773.86363,166.348295 C774.206564,166.348295 774.484888,166.62637 774.484888,166.969553 L774.484888,177.887539 C775.037062,178.215812 775.733616,178.633794 775.879487,178.738911 C777.905782,180.202346 776.953767,183.022856 774.854909,183.022856 L774.854909,183.022856 Z" id="Feature-icon-8"></path>
            </g>
        </g>
    </g>
</svg>