<?xml version="1.0" encoding="UTF-8"?>
<svg width="26px" height="21px" viewBox="0 0 26 21" version="1.1" xmlns="http://www.w3.org/2000/svg" xmlns:xlink="http://www.w3.org/1999/xlink">
    <!-- Generator: Sketch 47.1 (45422) - http://www.bohemiancoding.com/sketch -->
    <title>Feature icon 9</title>
    <desc>Created with Sketch.</desc>
    <defs></defs>
    <g id="Pages" stroke="none" stroke-width="1" fill="none" fill-rule="evenodd">
        <g id="Home" transform="translate(-899.000000, -4446.000000)" fill="#20BFD7">
            <g id="Group-Copy-3" transform="translate(147.000000, 4188.000000)">
                <path d="M753.775512,261.283359 L755.987922,263.052251 L755.089086,264.176156 L752.876675,262.406976 L753.775512,261.283359 Z M774.56388,264.630324 L773.664756,263.506706 L775.877454,261.737238 L776.776291,262.860856 L774.56388,264.630324 Z M774.908967,269.419514 L777.463873,269.419514 L777.463873,267.980455 L774.908967,267.980455 L774.908967,269.419514 Z M774.3745,272.699707 L776.587198,274.468887 L775.688362,275.592793 L773.475663,273.823325 L774.3745,272.699707 Z M754.899993,272.245828 L755.79883,273.369445 L753.586419,275.138913 L752.687583,274.015008 L754.899993,272.245828 Z M752,268.895409 L754.554907,268.895409 L754.554907,267.456349 L752,267.456349 L752,268.895409 Z M767.373763,274.903483 L768.946079,274.903483 L768.946079,273.464423 L767.373763,273.464423 L767.373763,274.903483 Z M760.466276,274.903483 L762.193148,274.903483 L762.193148,273.464423 L760.466276,273.464423 L760.466276,274.903483 Z M763.920019,274.903483 L765.646891,274.903483 L765.646891,273.464423 L763.920019,273.464423 L763.920019,274.903483 Z M762.599826,270.960459 C762.599826,272.058174 760.938288,272.059901 760.938288,270.960459 C760.938288,269.862745 762.599826,269.861593 762.599826,270.960459 L762.599826,270.960459 Z M760.938288,268.477794 L765.816988,268.477794 L765.816988,267.038734 L760.938288,267.038734 L760.938288,268.477794 Z M761.657817,264.435475 L767.626461,264.435475 L767.626461,263.271276 L761.657817,263.271276 L761.657817,264.435475 Z M768.345991,261.832216 L760.938288,261.832216 C760.540819,261.832216 760.218758,262.154278 760.218758,262.551746 L760.218758,265.155005 C760.218758,265.552473 760.540819,265.874535 760.938288,265.874535 L768.345991,265.874535 C768.74346,265.874535 769.065521,265.552473 769.065521,265.155005 L769.065521,262.551746 C769.065521,262.154278 768.74346,261.832216 768.345991,261.832216 L768.345991,261.832216 Z M770.704898,276.464863 C770.704898,276.887371 770.361538,277.23073 769.93903,277.23073 L759.344673,277.23073 C758.922741,277.23073 758.579093,276.887371 758.579093,276.464863 L758.579093,260.204927 C758.579093,259.782419 758.922741,259.43906 759.344673,259.43906 L769.93903,259.43906 C770.361538,259.43906 770.704898,259.782419 770.704898,260.204927 L770.704898,276.464863 Z M769.93903,258 L759.344673,258 C758.129243,258 757.140033,258.988922 757.140033,260.204927 L757.140033,276.464863 C757.140033,277.680868 758.129243,278.66979 759.344673,278.66979 L769.93903,278.66979 C771.155036,278.66979 772.143958,277.680868 772.143958,276.464863 L772.143958,260.204927 C772.143958,258.988922 771.155036,258 769.93903,258 L769.93903,258 Z" id="Feature-icon-9"></path>
            </g>
        </g>
    </g>
</svg>