<?xml version="1.0" encoding="UTF-8"?>
<svg width="19px" height="21px" viewBox="0 0 19 21" version="1.1" xmlns="http://www.w3.org/2000/svg" xmlns:xlink="http://www.w3.org/1999/xlink">
    <!-- Generator: Sketch 47.1 (45422) - http://www.bohemiancoding.com/sketch -->
    <title>Feature icon 3</title>
    <desc>Created with Sketch.</desc>
    <defs></defs>
    <g id="Pages" stroke="none" stroke-width="1" fill="none" fill-rule="evenodd">
        <g id="Home" transform="translate(-153.000000, -4467.000000)" fill="#20BFD7">
            <g id="Group-Copy-3" transform="translate(147.000000, 4188.000000)">
                <path d="M20.7495637,287.434848 L21.9990819,287.434848 L21.9990819,285.935426 L20.7495637,285.935426 L20.7495637,287.434848 Z M20.7495637,290.433692 L21.9990819,290.433692 L21.9990819,288.93427 L20.7495637,288.93427 L20.7495637,290.433692 Z M20.7495637,284.436004 L21.9990819,284.436004 L21.9990819,282.936582 L20.7495637,282.936582 L20.7495637,284.436004 Z M10.2018801,293.334074 L12.0231779,293.334074 L11.9349619,293.86337 L10.2018801,293.86337 L10.2018801,293.334074 Z M20.7495637,293.86337 L18.673614,293.86337 L18.5978932,293.334074 L20.7495637,293.334074 L20.7495637,293.86337 Z M12.7821353,296.37815 L13.2899395,293.334074 L17.3358797,293.334074 L17.7712119,296.37815 L12.7821353,296.37815 Z M9.57712093,295.112888 L11.7265423,295.112888 L11.4284072,296.900199 C11.3649317,297.279803 11.6578188,297.627669 12.0444197,297.627669 L18.4914342,297.627669 C18.873287,297.627669 19.1634252,297.288799 19.1099458,296.914444 L18.8522951,295.112888 L21.3743228,295.112888 C21.7191898,295.112888 21.9990819,294.833246 21.9990819,294.488129 L21.9990819,292.709315 C21.9990819,292.364198 21.7191898,292.084556 21.3743228,292.084556 L9.57712093,292.084556 C9.23225388,292.084556 8.95236179,292.364198 8.95236179,292.709315 L8.95236179,294.488129 C8.95236179,294.833246 9.23225388,295.112888 9.57712093,295.112888 L9.57712093,295.112888 Z M10.2018801,289.222159 L17.6210198,289.222159 L17.6210198,283.9292 L10.2018801,283.9292 L10.2018801,289.222159 Z M9.57712093,290.471677 L18.2460288,290.471677 C18.5911458,290.471677 18.870788,290.192035 18.870788,289.846918 L18.870788,283.304441 C18.870788,282.959324 18.5911458,282.679681 18.2460288,282.679681 L9.57712093,282.679681 C9.23225388,282.679681 8.95236179,282.959324 8.95236179,283.304441 L8.95236179,289.846918 C8.95236179,290.192035 9.23225388,290.471677 9.57712093,290.471677 L9.57712093,290.471677 Z M7.24951828,298.218191 L23.7504068,298.218191 L23.7504068,280.249618 L7.24951828,280.249618 L7.24951828,298.218191 Z M24.3751659,279.0001 L6.62475914,279.0001 C6.27964219,279.0001 6,279.279742 6,279.624859 L6,298.84295 C6,299.188067 6.27964219,299.467709 6.62475914,299.467709 L24.3751659,299.467709 C24.7202828,299.467709 24.999925,299.188067 24.999925,298.84295 L24.999925,279.624859 C24.999925,279.279742 24.7202828,279.0001 24.3751659,279.0001 L24.3751659,279.0001 Z" id="Feature-icon-3"></path>
            </g>
        </g>
    </g>
</svg>