<?xml version="1.0" encoding="UTF-8"?>
<svg width="60px" height="60px" viewBox="0 0 60 60" version="1.1" xmlns="http://www.w3.org/2000/svg" xmlns:xlink="http://www.w3.org/1999/xlink">
    <!-- Generator: Sketch 47.1 (45422) - http://www.bohemiancoding.com/sketch -->
    <title>Home Icon 3</title>
    <desc>Created with Sketch.</desc>
    <defs>
        <polygon id="path-1" points="51.2195122 0.0563725999 0 0.0563725999 0 25.9386912 0 51.8210099 51.2195122 51.8210099"></polygon>
        <polygon id="path-3" points="0 60 60 60 60 0 0 0"></polygon>
    </defs>
    <g id="Pages" stroke="none" stroke-width="1" fill="none" fill-rule="evenodd">
        <g id="Home" transform="translate(-1070.000000, -1417.000000)">
            <g id="Home-Icon-3" transform="translate(1070.000000, 1417.000000)">
                <g id="Group-3">
                    <mask id="mask-2" fill="white">
                        <use xlink:href="#path-1"></use>
                    </mask>
                    <g id="Clip-2"></g>
                    <path d="M8.35100742,4.75817903 L8.35100742,7.70171303 L10.5779427,7.70171303 L10.5779427,4.75817903 L40.6415695,4.75817903 L40.6415695,7.70171303 L42.8685048,7.70171303 L42.8685048,4.75817903 L48.9925769,4.75817903 L48.9925769,11.3902496 L2.22693531,11.3902496 L2.22693531,4.75817903 L8.35100742,4.75817903 Z M26.7555143,49.6103197 L2.22693531,49.6103197 L2.22693531,13.6009398 L48.9925769,13.6009398 L48.9925769,27.0071178 C49.7553022,27.216028 50.5002121,27.4685994 51.2195122,27.7709113 L51.2195122,2.54748884 L42.8685048,2.54748884 L42.8685048,0.0560409964 L40.6415695,0.0560409964 L40.6415695,2.54748884 L10.5779427,2.54748884 L10.5779427,0.0560409964 L8.35100742,0.0560409964 L8.35100742,2.54748884 L0,2.54748884 L0,51.8210099 L27.5939555,51.8210099 C27.2682662,51.1069569 26.9860021,50.3696917 26.7555143,49.6103197 L26.7555143,49.6103197 Z" id="Fill-1" fill="#21C3DB" mask="url(#mask-2)"></path>
                </g>
                <mask id="mask-4" fill="white">
                    <use xlink:href="#path-3"></use>
                </mask>
                <g id="Clip-5"></g>
                <path d="M18.3972125,21.8466899 L21.8466899,21.8466899 L21.8466899,18.3972125 L18.3972125,18.3972125 L18.3972125,21.8466899 Z M16.097561,24.1463415 L24.1463415,24.1463415 L24.1463415,16.097561 L16.097561,16.097561 L16.097561,24.1463415 Z" id="Fill-4" fill="#21C3DB" mask="url(#mask-4)"></path>
                <path d="M7.42160279,21.8466899 L10.8710801,21.8466899 L10.8710801,18.3972125 L7.42160279,18.3972125 L7.42160279,21.8466899 Z M5.12195122,24.1463415 L13.1707317,24.1463415 L13.1707317,16.097561 L5.12195122,16.097561 L5.12195122,24.1463415 Z" id="Fill-6" fill="#21C3DB" mask="url(#mask-4)"></path>
                <path d="M18.3972125,32.8222997 L21.8466899,32.8222997 L21.8466899,29.3728223 L18.3972125,29.3728223 L18.3972125,32.8222997 Z M16.097561,35.1219512 L24.1463415,35.1219512 L24.1463415,27.0731707 L16.097561,27.0731707 L16.097561,35.1219512 Z" id="Fill-7" fill="#21C3DB" mask="url(#mask-4)"></path>
                <path d="M29.3728223,21.8466899 L32.8222997,21.8466899 L32.8222997,18.3972125 L29.3728223,18.3972125 L29.3728223,21.8466899 Z M27.0731707,24.1463415 L35.1219512,24.1463415 L35.1219512,16.097561 L27.0731707,16.097561 L27.0731707,24.1463415 Z" id="Fill-8" fill="#21C3DB" mask="url(#mask-4)"></path>
                <path d="M40.3484321,21.8466899 L43.7979094,21.8466899 L43.7979094,18.3972125 L40.3484321,18.3972125 L40.3484321,21.8466899 Z M38.0487805,24.1463415 L46.097561,24.1463415 L46.097561,16.097561 L38.0487805,16.097561 L38.0487805,24.1463415 Z" id="Fill-9" fill="#21C3DB" mask="url(#mask-4)"></path>
                <path d="M7.42160279,32.8222997 L10.8710801,32.8222997 L10.8710801,29.3728223 L7.42160279,29.3728223 L7.42160279,32.8222997 Z M5.12195122,35.1219512 L13.1707317,35.1219512 L13.1707317,27.0731707 L5.12195122,27.0731707 L5.12195122,35.1219512 Z" id="Fill-10" fill="#21C3DB" mask="url(#mask-4)"></path>
                <path d="M27.0731707,27.0731707 L27.0731707,35.1219512 L28.5581707,35.1219512 C29.0387979,34.3147735 29.5763415,33.5455401 30.1690767,32.8222997 L29.3728223,32.8222997 L29.3728223,29.3728223 L32.8222997,29.3728223 L32.8222997,30.1690767 C33.5455401,29.5763415 34.3147735,29.0387979 35.1219512,28.5581707 L35.1219512,27.0731707 L27.0731707,27.0731707 Z" id="Fill-11" fill="#21C3DB" mask="url(#mask-4)"></path>
                <path d="M7.42160279,43.7979094 L10.8710801,43.7979094 L10.8710801,40.3484321 L7.42160279,40.3484321 L7.42160279,43.7979094 Z M5.12195122,46.097561 L13.1707317,46.097561 L13.1707317,38.0487805 L5.12195122,38.0487805 L5.12195122,46.097561 Z" id="Fill-12" fill="#21C3DB" mask="url(#mask-4)"></path>
                <path d="M18.3972125,43.7979094 L21.8466899,43.7979094 L21.8466899,40.3484321 L18.3972125,40.3484321 L18.3972125,43.7979094 Z M16.097561,46.097561 L24.1463415,46.097561 L24.1463415,38.0487805 L16.097561,38.0487805 L16.097561,46.097561 Z" id="Fill-13" fill="#21C3DB" mask="url(#mask-4)"></path>
                <path d="M44.2685672,57.8040993 C36.8047006,57.8040993 30.7324861,51.7318848 30.7324861,44.2680182 C30.7324861,40.6524676 32.1406074,37.2532133 34.6971849,34.6966359 C37.2537623,32.1400585 40.6530166,30.7324861 44.2685672,30.7324861 C51.7324338,30.7324861 57.8040993,36.8047006 57.8040993,44.2680182 C57.8040993,51.7318848 51.7324338,57.8040993 44.2685672,57.8040993 M44.2685672,28.5365854 C40.0667111,28.5365854 36.1157367,30.1725314 33.144683,33.1441341 C30.1730804,36.1157367 28.5365854,40.0661621 28.5365854,44.2680182 C28.5365854,52.942924 35.5942103,60 44.2685672,60 C52.942924,60 60,52.942924 60,44.2680182 C60,35.5936613 52.942924,28.5365854 44.2685672,28.5365854" id="Fill-14" fill="#21C3DB" mask="url(#mask-4)"></path>
                <path d="M44.3064422,44.6341463 L50.0838017,44.6341463 C50.7112817,44.6341463 51.2195122,44.1611508 51.2195122,43.5771731 C51.2195122,42.9937239 50.7112817,42.5201999 50.0838017,42.5201999 L45.4421528,42.5201999 L45.4421528,34.7155098 C45.4421528,34.1320606 44.9333544,33.6585366 44.3064422,33.6585366 C43.6789622,33.6585366 43.1707317,34.1320606 43.1707317,34.7155098 L43.1707317,43.5771731 C43.1707317,44.1611508 43.6789622,44.6341463 44.3064422,44.6341463" id="Fill-15" fill="#21C3DB" mask="url(#mask-4)"></path>
            </g>
        </g>
    </g>
</svg>