<?xml version="1.0" encoding="UTF-8"?>
<svg width="60px" height="60px" viewBox="0 0 60 60" version="1.1" xmlns="http://www.w3.org/2000/svg" xmlns:xlink="http://www.w3.org/1999/xlink">
    <!-- Generator: Sketch 47.1 (45422) - http://www.bohemiancoding.com/sketch -->
    <title>Home Icon 1@1x</title>
    <desc>Created with Sketch.</desc>
    <defs>
        <polygon id="path-1" points="0 60 60 60 60 0 0 0"></polygon>
    </defs>
    <g id="Pages" stroke="none" stroke-width="1" fill="none" fill-rule="evenodd">
        <g id="Home" transform="translate(-270.000000, -1417.000000)">
            <g id="Home-Icon-1" transform="translate(270.000000, 1417.000000)">
                <path d="M9.4433475,55.9742142 C9.4433475,54.9502773 8.59217379,54.1172439 7.54525785,54.1172439 C6.4983419,54.1172439 5.64661368,54.9502773 5.64661368,55.9742142 C5.64661368,56.9981511 6.4983419,57.8306422 7.54525785,57.8306422 C8.59217379,57.8306422 9.4433475,56.9981511 9.4433475,55.9742142 Z M11.9846694,35.7400715 C11.9846694,36.7640084 12.8363976,37.5970418 13.8833136,37.5970418 C14.9302295,37.5970418 15.7819577,36.7640084 15.7819577,35.7400715 C15.7819577,34.7166769 14.9302295,33.8836435 13.8833136,33.8836435 C12.8363976,33.8836435 11.9846694,34.7166769 11.9846694,35.7400715 Z M11.8765399,39.2522618 L8.65427897,42.4227783 L8.65427897,52.1008258 C10.3860155,52.5759152 11.6613898,54.1302601 11.6613898,55.9742142 C11.6613898,58.1940096 9.81486958,60 7.54525785,60 C5.2750916,60 3.42857143,58.1940096 3.42857143,55.9742142 C3.42857143,54.1302601 4.70394572,52.5759152 6.43623672,52.1008258 L6.43623672,41.5279182 L10.3045024,37.7223222 C9.96403292,37.1365956 9.76662716,36.4608406 9.76662716,35.7400715 C9.76662716,33.5202761 11.6131473,31.7142857 13.8833136,31.7142857 C16.1534798,31.7142857 18,33.5202761 18,35.7400715 C18,37.9604092 16.1534798,39.7663996 13.8833136,39.7663996 C13.1546867,39.7663996 12.4709752,39.5782078 11.8765399,39.2522618 Z" id="Fill-1" fill="#21C3DB"></path>
                <path d="M31.3503695,55.9956844 C31.3503695,57.0141605 30.5523399,57.8422117 29.5714286,57.8422117 C28.5905172,57.8422117 27.7924877,57.0141605 27.7924877,55.9956844 C27.7924877,54.9772084 28.5905172,54.1486177 29.5714286,54.1486177 C30.5523399,54.1486177 31.3503695,54.9772084 31.3503695,55.9956844 L31.3503695,55.9956844 Z M28.5323276,24 L28.5323276,52.1429535 C26.9092518,52.6155091 25.7142857,54.1615644 25.7142857,55.9956844 C25.7142857,58.2036413 27.4443889,60 29.5714286,60 C31.6984683,60 33.4285714,58.2036413 33.4285714,55.9956844 C33.4285714,54.1615644 32.2336053,52.6155091 30.6105296,52.1429535 L30.6105296,24 L28.5323276,24 Z" id="Fill-3" fill="#21C3DB"></path>
                <path d="M55.2104448,55.9742142 C55.2104448,56.9981511 54.3586841,57.8306422 53.3117283,57.8306422 C52.2647726,57.8306422 51.4135665,56.9981511 51.4135665,55.9742142 C51.4135665,54.9502773 52.2647726,54.1172439 53.3117283,54.1172439 C54.3586841,54.1172439 55.2104448,54.9502773 55.2104448,55.9742142 M45.0752695,35.7400715 C45.0752695,34.7166769 45.9270302,33.8836435 46.9734314,33.8836435 C48.0203872,33.8836435 48.8721478,34.7166769 48.8721478,35.7400715 C48.8721478,36.7640084 48.0203872,37.5970418 46.9734314,37.5970418 C45.9270302,37.5970418 45.0752695,36.7640084 45.0752695,35.7400715 M49.1954398,55.9742142 C49.1954398,58.1940096 51.0420302,60 53.3117283,60 C55.581981,60 57.4285714,58.1940096 57.4285714,55.9742142 C57.4285714,54.1302601 56.1531486,52.5759152 54.4207917,52.1008258 L54.4207917,41.5279182 L50.5523788,37.7223222 C50.8934158,37.1365956 51.0902745,36.4608406 51.0902745,35.7400715 C51.0902745,33.5202761 49.243684,31.7142857 46.9734314,31.7142857 C44.7037333,31.7142857 42.8571429,33.5202761 42.8571429,35.7400715 C42.8571429,37.9604092 44.7037333,39.7663996 46.9734314,39.7663996 C47.702086,39.7663996 48.3858236,39.5782078 48.9802815,39.2522618 L52.202665,42.4227783 L52.202665,52.1008258 C50.4708626,52.5759152 49.1954398,54.1302601 49.1954398,55.9742142" id="Fill-5" fill="#21C3DB"></path>
                <path d="M43.2617438,55.9956844 C43.2617438,57.0141605 42.4296819,57.8422117 41.4069393,57.8422117 C40.3841966,57.8422117 39.5521348,57.0141605 39.5521348,55.9956844 C39.5521348,54.9772084 40.3841966,54.1486177 41.4069393,54.1486177 C42.4296819,54.1486177 43.2617438,54.9772084 43.2617438,55.9956844 M37.3853071,55.9956844 C37.3853071,58.2036413 39.1891911,60 41.4069393,60 C43.6246874,60 45.4285714,58.2036413 45.4285714,55.9956844 C45.4285714,54.1750506 44.2010636,52.637087 42.5277309,52.1521241 L42.5277309,42.5116655 L39.0239705,39.5387728 L39.0239705,32.2001349 L42.5277309,29.2272421 L42.5277309,24 L40.3609032,24 L40.3609032,28.2308833 L36.8571429,31.2037761 L36.8571429,40.5351315 L40.3609032,43.5080243 L40.3609032,52.1332434 C38.6496511,52.5933918 37.3853071,54.1480782 37.3853071,55.9956844" id="Fill-7" fill="#21C3DB"></path>
                <path d="M20.4474939,55.9956844 C20.4474939,57.0141605 19.6154846,57.8422117 18.5928066,57.8422117 C17.5706702,57.8422117 16.7381193,57.0141605 16.7381193,55.9956844 C16.7381193,54.9772084 17.5706702,54.1486177 18.5928066,54.1486177 C19.6154846,54.1486177 20.4474939,54.9772084 20.4474939,55.9956844 L20.4474939,55.9956844 Z M23.1428571,40.5351315 L23.1428571,31.2037761 L19.6393182,28.2308833 L19.6393182,24 L17.4726275,24 L17.4726275,29.2272421 L20.9761664,32.2001349 L20.9761664,39.5387728 L17.4726275,42.5116655 L17.4726275,52.1521241 C15.7988589,52.637087 14.5714286,54.1750506 14.5714286,55.9956844 C14.5714286,58.2036413 16.3751986,60 18.5928066,60 C20.8104146,60 22.6141846,58.2036413 22.6141846,55.9956844 C22.6141846,54.1480782 21.3499206,52.5933918 19.6393182,52.1332434 L19.6393182,43.5080243 L23.1428571,40.5351315 Z" id="Fill-9" fill="#21C3DB"></path>
                <mask id="mask-2" fill="white">
                    <use xlink:href="#path-1"></use>
                </mask>
                <g id="Clip-12"></g>
                <path d="M2.18181818,10.8131868 L57.8181818,10.8131868 L57.8181818,2.16263736 L2.18181818,2.16263736 L2.18181818,10.8131868 Z M2.18181818,12.9758242 L57.8181818,12.9758242 L57.8181818,35.1428571 L60,35.1428571 L60,0 L0,0 L0,35.1428571 L2.18181818,35.1428571 L2.18181818,12.9758242 Z" id="Fill-11" fill="#21C3DB" mask="url(#mask-2)"></path>
                <polygon id="Fill-13" fill="#21C3DB" mask="url(#mask-2)" points="5.14285714 7.71428571 7.71428571 7.71428571 7.71428571 5.14285714 5.14285714 5.14285714"></polygon>
                <polygon id="Fill-14" fill="#21C3DB" mask="url(#mask-2)" points="43.7142857 7.71428571 46.2857143 7.71428571 46.2857143 5.14285714 43.7142857 5.14285714"></polygon>
                <polygon id="Fill-15" fill="#21C3DB" mask="url(#mask-2)" points="48 7.71428571 50.5714286 7.71428571 50.5714286 5.14285714 48 5.14285714"></polygon>
                <polygon id="Fill-16" fill="#21C3DB" mask="url(#mask-2)" points="52.2857143 7.71428571 54.8571429 7.71428571 54.8571429 5.14285714 52.2857143 5.14285714"></polygon>
            </g>
        </g>
    </g>
</svg>