<?xml version="1.0" encoding="UTF-8"?>
<svg width="60px" height="67px" viewBox="0 0 60 67" version="1.1" xmlns="http://www.w3.org/2000/svg" xmlns:xlink="http://www.w3.org/1999/xlink">
    <!-- Generator: Sketch 47.1 (45422) - http://www.bohemiancoding.com/sketch -->
    <title>Home Icon 2</title>
    <desc>Created with Sketch.</desc>
    <defs>
        <polygon id="path-1" points="0 67 59.8224242 67 59.8224242 0.0935585586 0 0.0935585586"></polygon>
    </defs>
    <g id="Pages" stroke="none" stroke-width="1" fill="none" fill-rule="evenodd">
        <g id="Home" transform="translate(-670.000000, -1414.000000)">
            <g id="Home-Icon-2" transform="translate(670.000000, 1414.000000)">
                <polygon id="Fill-1" fill="#21C3DB" points="25.4161881 0 24.0494873 6.41049383 20.7056502 7.8109157 15.2834396 4.24531558 9.35624865 10.2459 12.8549545 15.7600993 11.4659574 19.151335 5.14888316 20.5217784 5.14285714 24.9102564 7.55386678 24.9102564 7.55687979 22.5015797 13.2068739 21.2761341 15.5666624 15.5141537 12.437954 10.5830046 15.6076393 7.37347505 20.4561731 10.562815 26.1375024 8.18228139 27.360784 2.44966762 31.8363073 2.45578567 33.0439212 8.19207028 38.7192246 10.587899 43.5761948 7.41140697 46.7374436 10.6295018 43.595478 15.5526974 45.9408041 21.3201841 51.58658 22.5621484 51.5835669 24.9102564 53.9945766 24.9102564 54 20.5878534 47.6859388 19.2002794 46.3059807 15.8059847 49.8185464 10.3003506 43.9076257 4.2832475 38.4769787 7.8347761 35.1367571 6.42456534 33.7869292 0.0110124918"></polygon>
                <g id="Group-13">
                    <path d="M33.3712121,16.245991 C36.8790909,17.6934324 38.9821212,21.1013784 38.9451515,24.6698829 L36.5215152,24.6698829 C36.559697,22.0478288 35.020303,19.5392523 32.4433333,18.4763063 C29.0724242,17.0868108 25.1942424,18.6863604 23.7978788,22.0436036 C23.4409091,22.9025315 23.2827273,23.7946577 23.2984848,24.6698829 L20.8730303,24.6698829 C20.8572727,23.4862162 21.0754545,22.2802162 21.5584848,21.1188829 C23.4657576,16.5327027 28.7627273,14.3470541 33.3712121,16.245991 Z" id="Fill-2" fill="#21C3DB"></path>
                    <mask id="mask-2" fill="white">
                        <use xlink:href="#path-1"></use>
                    </mask>
                    <g id="Clip-5"></g>
                    <path d="M2.42424242,64.5855856 L57.3981818,64.5855856 L57.3981818,38.9511441 L2.42424242,38.9511441 L2.42424242,64.5855856 Z M2.42424242,36.5367297 L57.3981818,36.5367297 L57.3981818,29.4987117 L2.42424242,29.4987117 L2.42424242,36.5367297 Z M0,67 L59.8224242,67 L59.8224242,27.0842973 L0,27.0842973 L0,67 Z" id="Fill-4" fill="#21C3DB" mask="url(#mask-2)"></path>
                    <polygon id="Fill-6" fill="#21C3DB" mask="url(#mask-2)" points="5.95757576 34.2249279 8.38181818 34.2249279 8.38181818 31.8105135 5.95757576 31.8105135"></polygon>
                    <polygon id="Fill-7" fill="#21C3DB" mask="url(#mask-2)" points="51.4406061 34.2249279 53.8648485 34.2249279 53.8648485 31.8105135 51.4406061 31.8105135"></polygon>
                    <polygon id="Fill-8" fill="#21C3DB" mask="url(#mask-2)" points="46.4630303 34.2249279 48.8872727 34.2249279 48.8872727 31.8105135 46.4630303 31.8105135"></polygon>
                    <polygon id="Fill-9" fill="#21C3DB" mask="url(#mask-2)" points="41.4854545 34.2249279 43.909697 34.2249279 43.909697 31.8105135 41.4854545 31.8105135"></polygon>
                    <path d="M9.30545455,55.3075946 L16.5781818,55.3075946 L16.5781818,48.0643514 L9.30545455,48.0643514 L9.30545455,55.3075946 Z M6.88121212,57.722009 L19.0024242,57.722009 L19.0024242,45.6499369 L6.88121212,45.6499369 L6.88121212,57.722009 Z" id="Fill-10" fill="#21C3DB" mask="url(#mask-2)"></path>
                    <polygon id="Fill-11" fill="#21C3DB" mask="url(#mask-2)" points="35.9718182 51.374755 33.5475758 53.7891694 33.5475758 55.307836 26.2748485 55.307836 26.2748485 50.3751874 29.9112121 53.996809 39.4427273 44.5039351 37.7281818 42.7969441 29.9112121 50.582827 27.3827273 48.0645928 29.0118182 48.0645928 31.4360606 45.6495748 23.8506061 45.6495748 23.8506061 57.7222505 35.9718182 57.7222505"></polygon>
                    <path d="M43.2448485,55.3075946 L50.5175758,55.3075946 L50.5175758,48.0643514 L43.2448485,48.0643514 L43.2448485,55.3075946 Z M40.8206061,57.722009 L52.9418182,57.722009 L52.9418182,45.6499369 L40.8206061,45.6499369 L40.8206061,57.722009 Z" id="Fill-12" fill="#21C3DB" mask="url(#mask-2)"></path>
                </g>
            </g>
        </g>
    </g>
</svg>